{
  "accessors": [
    {
      "bufferView": 2,
      "componentType": 5126,
      "count": 660,
      "max": [
        0.73391228914260864,
        0.52234899997711182,
        2.0577337741851807
      ],
      "min": [
        -0.73391228914260864,
        -1.2293636798858643,
        -0.22593496739864349
      ],
      "type": "VEC3"
    },
    {
      "bufferView": 2,
      "byteOffset": 7920,
      "componentType": 5126,
      "count": 660,
      "max": [
        0.99891293048858643,
        0.99996089935302734,
        0.99598425626754761
      ],
      "min": [
        -0.99703687429428101,
        -0.94137108325958252,
        -0.96442532539367676
      ],
      "type": "VEC3"
    },
    {
      "bufferView": 3,
      "componentType": 5126,
      "count": 660,
      "max": [
        0.99999415874481201,
        0.98191332817077637,
        0.45162555575370789,
        1
      ],
      "min": [
        -0.99999415874481201,
        -0.99932211637496948,
        -0.7224661111831665,
        -1
      ],
      "type": "VEC4"
    },
    {
      "bufferView": 1,
      "componentType": 5126,
      "count": 660,
      "max": [
        0.96931630373001099,
        0.96762609481811523
      ],
      "min": [
        0.031309608370065689,
        0.029604729264974594
      ],
      "type": "VEC2"
    },
    {
      "bufferView": 0,
      "componentType": 5125,
      "count": 660,
      "max": [
        659
      ],
      "min": [
        0
      ],
      "type": "SCALAR"
    },
    {
      "bufferView": 2,
      "byteOffset": 15840,
      "componentType": 5126,
      "count": 623,
      "max": [
        0.7274051308631897,
        0.51235389709472656,
        2.0477340221405029
      ],
      "min": [
        -0.7274051308631897,
        -1.2194554805755615,
        -0.21721583604812622
      ],
      "type": "VEC3"
    },
    {
      "bufferView": 2,
      "byteOffset": 23316,
      "componentType": 5126,
      "count": 623,
      "max": [
        0.99245434999465942,
        0.94196641445159912,
        0.96499359607696533
      ],
      "min": [
        -0.99099957942962646,
        -0.9999992847442627,
        -0.9912714958190918
      ],
      "type": "VEC3"
    },
    {
      "bufferView": 3,
      "byteOffset": 10560,
      "componentType": 5126,
      "count": 623,
      "max": [
        0.99999994039535522,
        0.98698318004608154,
        0.99989891052246094,
        1
      ],
      "min": [
        -0.99999994039535522,
        -0.99809449911117554,
        -0.99999934434890747,
        -1
      ],
      "type": "VEC4"
    },
    {
      "bufferView": 1,
      "byteOffset": 5280,
      "componentType": 5126,
      "count": 623,
      "max": [
        0.96931630373001099,
        0.96762609481811523
      ],
      "min": [
        0.031309608370065689,
        0.029604729264974594
      ],
      "type": "VEC2"
    },
    {
      "bufferView": 0,
      "byteOffset": 2640,
      "componentType": 5125,
      "count": 660,
      "max": [
        622
      ],
      "min": [
        0
      ],
      "type": "SCALAR"
    }
  ],
  "asset": {
    "extras": {
      "author": "M. Wallace (https://sketchfab.com/walliswahles)",
      "license": "SKETCHFAB Standard (https://sketchfab.com/licenses)",
      "source": "https://sketchfab.com/models/f9d6d02db98d4042a3f35cf0c19d0d93",
      "title": "Male Head I"
    },
    "generator": "Sketchfab-4.1.3",
    "version": "2.0"
  },
  "bufferViews": [
    {
      "buffer": 0,
      "byteLength": 5280,
      "byteOffset": 0,
      "name": "floatBufferViews",
      "target": 34963
    },
    {
      "buffer": 0,
      "byteLength": 10264,
      "byteOffset": 5280,
      "byteStride": 8,
      "name": "floatBufferViews",
      "target": 34962
    },
    {
      "buffer": 0,
      "byteLength": 30792,
      "byteOffset": 15544,
      "byteStride": 12,
      "name": "floatBufferViews",
      "target": 34962
    },
    {
      "buffer": 0,
      "byteLength": 20528,
      "byteOffset": 46336,
      "byteStride": 16,
      "name": "floatBufferViews",
      "target": 34962
    }
  ],
  "buffers": [
    {
      "byteLength": 66864,
      "uri": "scene.bin"
    }
  ],
  "images": [
    {
      "uri": "textures/MAT_OUTLINE_baseColor.png"
    },
    {
      "uri": "textures/MAT_SKIN_baseColor.png"
    }
  ],
  "materials": [
    {
      "doubleSided": false,
      "name": "MAT_OUTLINE",
      "pbrMetallicRoughness": {
        "baseColorFactor": [
          0.10000000000000001,
          0.10000000000000001,
          0.10000000000000001,
          1
        ],
        "baseColorTexture": {
          "index": 0,
          "texCoord": 0
        },
        "metallicFactor": 0,
        "roughnessFactor": 0.59999999999999998
      }
    },
    {
      "doubleSided": true,
      "emissiveFactor": [
        0,
        0,
        0
      ],
      "name": "MAT_SKIN",
      "pbrMetallicRoughness": {
        "baseColorFactor": [
          1,
          1,
          1,
          1
        ],
        "baseColorTexture": {
          "index": 1,
          "texCoord": 0
        },
        "metallicFactor": 0,
        "roughnessFactor": 0.59999999999999998
      }
    }
  ],
  "meshes": [
    {
      "name": "head_outline_MAT_OUTLINE_0",
      "primitives": [
        {
          "attributes": {
            "NORMAL": 1,
            "POSITION": 0,
            "TANGENT": 2,
            "TEXCOORD_0": 3
          },
          "indices": 4,
          "material": 0,
          "mode": 4
        }
      ]
    },
    {
      "name": "head_mesh_MAT_SKIN_0",
      "primitives": [
        {
          "attributes": {
            "NORMAL": 6,
            "POSITION": 5,
            "TANGENT": 7,
            "TEXCOORD_0": 8
          },
          "indices": 9,
          "material": 1,
          "mode": 4
        }
      ]
    }
  ],
  "nodes": [
    {
      "children": [
        1
      ],
      "name": "RootNode (gltf orientation matrix)",
      "rotation": [
        -0.70710678118654746,
        -0,
        -0,
        0.70710678118654757
      ]
    },
    {
      "children": [
        2
      ],
      "matrix": [
        1,
        0,
        0,
        0,
        0,
        1,
        0,
        0,
        0,
        0,
        1,
        0,
        -1.5178000012383563e-06,
        -5.1800998335238546e-06,
        6.3269999373005703e-07,
        1
      ],
      "name": "RootNode (model correction matrix)"
    },
    {
      "children": [
        3
      ],
      "matrix": [
        1,
        0,
        0,
        0,
        0,
        0,
        1,
        0,
        0,
        -1,
        0,
        0,
        0,
        0,
        0,
        1
      ],
      "name": "7ea3ca66e08b44b9b68593ebc658d8bb.fbx"
    },
    {
      "children": [
        4,
        6
      ],
      "name": "RootNode"
    },
    {
      "children": [
        5
      ],
      "matrix": [
        100,
        0,
        0,
        0,
        -0,
        -1.6292067939183141e-05,
        -99.999999999998678,
        0,
        0,
        99.999999999998678,
        -1.6292067939183141e-05,
        0,
        -2.5903809728333727e-06,
        0,
        0,
        1
      ],
      "name": "head_outline"
    },
    {
      "mesh": 0,
      "name": "head_outline_MAT_OUTLINE_0"
    },
    {
      "children": [
        7
      ],
      "matrix": [
        100,
        0,
        0,
        0,
        -0,
        -1.6292067939183141e-05,
        -99.999999999998678,
        0,
        0,
        99.999999999998678,
        -1.6292067939183141e-05,
        0,
        -2.5903809728333727e-06,
        0,
        0,
        1
      ],
      "name": "head_mesh"
    },
    {
      "mesh": 1,
      "name": "head_mesh_MAT_SKIN_0"
    }
  ],
  "samplers": [
    {
      "magFilter": 9729,
      "minFilter": 9987,
      "wrapS": 10497,
      "wrapT": 10497
    },
    {
      "magFilter": 9729,
      "minFilter": 9729,
      "wrapS": 10497,
      "wrapT": 10497
    }
  ],
  "scene": 0,
  "scenes": [
    {
      "name": "OSG_Scene",
      "nodes": [
        0
      ]
    }
  ],
  "textures": [
    {
      "sampler": 0,
      "source": 0
    },
    {
      "sampler": 1,
      "source": 1
    }
  ]
}

